<svg width="109" height="90" viewBox="0 0 109 90" fill="none" xmlns="http://www.w3.org/2000/svg">
  <path d="M13 3.99994C-13.7899 3.99994 17.6729 3.99994 26.7129 3.99994C28.0731 3.99994 29.2435 4.91513 29.5927 6.22978L34.3128 24M34.3128 24L45.4081 65.7701C45.7573 67.0848 46.9473 68 48.3076 68H91.658C93.0346 68 94.2346 67.0631 94.5685 65.7276L104.068 27.7276C104.542 25.8341 103.11 24 101.158 24H34.3128Z" stroke="white" stroke-width="4"/>
  <path d="M71.5 25V48.5M71.5 48.5C71.5 48.5 89.0001 30.5 80.0001 39.5M71.5 48.5C71.5 48.5 50.5 29 62 39.5" stroke="white" stroke-width="4"/>
  <circle cx="53.5" cy="83.5" r="6.5" fill="white"/>
  <circle cx="90.5" cy="83.5" r="6.5" fill="white"/>
</svg>
