<svg data-name="Calque 1" xmlns="http://www.w3.org/2000/svg" width="100" height="100"><g fill="none" stroke="#fff" stroke-linecap="round" stroke-linejoin="round" stroke-width="3.62"><rect x="32.67" y="39.67" width="35.08" height="47.96" rx="6.2" ry="6.2"/><path d="M42.94 30.75h9.5a4.44 4.44 0 0 1 4.44 4.44v4.44H38.5v-4.44a4.44 4.44 0 0 1 4.44-4.44z"/><path d="M46 13.31h3.19a2.16 2.16 0 0 1 2.16 2.16v14.48a.8.8 0 0 1-.8.8h-5.9a.8.8 0 0 1-.8-.8V15.47A2.16 2.16 0 0 1 46 13.31zM61.08 47.83v7.92M61.08 61.42v3.91"/></g></svg>