<?xml version="1.0" encoding="utf-8"?>
<!-- Generator: Adobe Illustrator 27.0.1, SVG Export Plug-In . SVG Version: 6.00 Build 0)  -->
<svg version="1.1" id="Calque_1" xmlns="http://www.w3.org/2000/svg" xmlns:xlink="http://www.w3.org/1999/xlink" x="0px" y="0px"
	 viewBox="0 0 100 100" style="enable-background:new 0 0 100 100;" xml:space="preserve">
<style type="text/css">
	.st0{fill:none;stroke:#FFFFFF;stroke-width:2.951;stroke-linecap:round;stroke-linejoin:round;}
</style>
<g id="Calque_1-2">
	<path class="st0" d="M50.1,64.6"/>
	<path class="st0" d="M68.6,54.2c-7.8,7.8-18.3,10-18.3,10s2.2-10.5,10-18.3s18.2-10,18.2-10S76.4,46.4,68.6,54.2z"/>
	<path class="st0" d="M31.4,54.2c7.8,7.8,18.2,10,18.2,10s-2.2-10.5-10-18.3s-18.2-10-18.2-10S23.6,46.4,31.4,54.2z"/>
	<path class="st0" d="M57.1,37.9c0,13.2-7,23.9-7,23.9s-7-10.7-7-23.9s7-23.9,7-23.9S57.1,24.7,57.1,37.9z M50,64.5V86"/>
</g>
</svg>
