<svg xmlns="http://www.w3.org/2000/svg" viewBox="0 0 100 100"><path fill="none" stroke="#FFF" stroke-width="3.105" stroke-linecap="round" stroke-linejoin="round" d="M34.7 20h7.7c1.1 0 2 .9 2 2v7.7c0 1.1-.9 2-2 2h-7.7c-1.1 0-2-.9-2-2V22c0-1.1.9-2 2-2zM46.5 20h7.7c1.1 0 2 .9 2 2v7.7c0 1.1-.9 2-2 2h-7.7c-1.1 0-2-.9-2-2V22c-.1-1.1.8-2 2-2zM58.2 20h7.7c1.1 0 2 .9 2 2v7.7c0 1.1-.9 2-2 2h-7.7c-1.1 0-2-.9-2-2V22c0-1.1.9-2 2-2zM34.7 31.8h7.7c1.1 0 2 .9 2 2v7.7c0 1.1-.9 2-2 2h-7.7c-1.1 0-2-.9-2-2v-7.7c0-1.1.9-2 2-2zM46.5 31.8h7.7c1.1 0 2 .9 2 2v7.7c0 1.1-.9 2-2 2h-7.7c-1.1 0-2-.9-2-2v-7.7c-.1-1.1.8-2 2-2zM58.2 31.8h7.7c1.1 0 2 .9 2 2v7.7c0 1.1-.9 2-2 2h-7.7c-1.1 0-2-.9-2-2v-7.7c0-1.1.9-2 2-2zM32.7 49.4v-3.8c0-1.1.9-2 2-2h7.7c1.1 0 2 .9 2.1 2V44"/><path fill="none" stroke="#FFF" stroke-width="3.105" stroke-linecap="round" stroke-linejoin="round" d="M44.4 44.8v.8c0-1.1.9-2 2-2h7.7c1.1 0 2 .9 2 2v2.2M56.2 46.3v-.7c0-1.1.9-2 2-2h7.7c1.1 0 2 .9 2 2v4.6M30 49.7l39.4 8.7"/><path fill="#FFF" d="M31.6 44.9l35.3 7.3c.9.2 1.5.9 1.6 1.8v23c0 1.1-.9 1.9-2 1.9H33.4c-1.1 0-1.9-.8-2-1.9V45c.1 0 .2-.1.2-.1m0-3.1c-1.8 0-3.2 1.5-3.3 3.2v32c0 2.8 2.3 5 5.1 5h33.1c2.8 0 5-2.2 5.1-5V54c0-2.4-1.7-4.4-4-4.9l-35.3-7.3c-.3.1-.5 0-.7 0z"/></svg>