<svg xmlns="http://www.w3.org/2000/svg" xmlns:xlink="http://www.w3.org/1999/xlink" viewBox="0 0 317.76 213.71"><defs><style>.cls-1{fill:none;}.cls-2{fill:url(#Dégradé_sans_nom_13);}.cls-3{isolation:isolate;}.cls-4{clip-path:url(#clip-path);}.cls-5{fill:#101010;}.cls-6{fill:#111;}.cls-7{clip-path:url(#clip-path-2);}.cls-8{fill:#004131;}.cls-9{fill:#004635;}.cls-10{clip-path:url(#clip-path-3);}.cls-11{fill:#1d1d1d;}.cls-12{fill:#202020;}.cls-13{fill:#141414;}.cls-14{clip-path:url(#clip-path-4);}.cls-15{fill:#696969;}.cls-16{fill:#00513d;}.cls-17{clip-path:url(#clip-path-5);}.cls-18{clip-path:url(#clip-path-6);}.cls-19{fill:#121212;}.cls-20,.cls-72,.cls-73{fill:#00c394;}.cls-21{clip-path:url(#clip-path-7);}.cls-22{clip-path:url(#clip-path-8);}.cls-23{clip-path:url(#clip-path-9);}.cls-24{clip-path:url(#clip-path-10);}.cls-25{clip-path:url(#clip-path-11);}.cls-26{fill:#171717;}.cls-27{clip-path:url(#clip-path-12);}.cls-28{fill:#242424;}.cls-29{fill:#202326;}.cls-30{clip-path:url(#clip-path-13);}.cls-31{clip-path:url(#clip-path-14);}.cls-32{clip-path:url(#clip-path-15);}.cls-33{clip-path:url(#clip-path-16);}.cls-34{clip-path:url(#clip-path-17);}.cls-35{clip-path:url(#clip-path-18);}.cls-36{clip-path:url(#clip-path-19);}.cls-37{clip-path:url(#clip-path-20);}.cls-38{clip-path:url(#clip-path-21);}.cls-39{fill:#191919;}.cls-40{fill:#1b1b1b;}.cls-41{fill:#1a1a1a;}.cls-42{clip-path:url(#clip-path-22);}.cls-43{clip-path:url(#clip-path-23);}.cls-44{clip-path:url(#clip-path-24);}.cls-45{clip-path:url(#clip-path-25);}.cls-46{clip-path:url(#clip-path-26);}.cls-47{clip-path:url(#clip-path-27);}.cls-48{fill:#043;}.cls-49{clip-path:url(#clip-path-28);}.cls-50{clip-path:url(#clip-path-29);}.cls-51{clip-path:url(#clip-path-30);}.cls-52{clip-path:url(#clip-path-31);}.cls-53{fill:#2c3037;}.cls-54{clip-path:url(#clip-path-32);}.cls-55{clip-path:url(#clip-path-33);}.cls-56{fill:#1f1f1f;}.cls-57{clip-path:url(#clip-path-34);}.cls-58{clip-path:url(#clip-path-35);}.cls-59{clip-path:url(#clip-path-36);}.cls-60{clip-path:url(#clip-path-37);}.cls-61{clip-path:url(#clip-path-38);}.cls-62{clip-path:url(#clip-path-39);}.cls-63{clip-path:url(#clip-path-40);}.cls-64{clip-path:url(#clip-path-41);}.cls-65{clip-path:url(#clip-path-42);}.cls-66{clip-path:url(#clip-path-43);}.cls-67{clip-path:url(#clip-path-44);}.cls-68{clip-path:url(#clip-path-45);}.cls-69{fill:#41464c;}.cls-70{fill:#333842;}.cls-71{fill:#6a7078;}.cls-72,.cls-74{opacity:0.6;}.cls-73{opacity:0.2;}.cls-75{fill:#fff;}</style><linearGradient id="Dégradé_sans_nom_13" x1="158.88" y1="249.31" x2="158.88" y2="180.5" gradientUnits="userSpaceOnUse"><stop offset="0" stop-color="#272930" stop-opacity="0"/><stop offset="0.13" stop-color="#23252c" stop-opacity="0.4"/><stop offset="0.3" stop-color="#1f2229" stop-opacity="0.74"/><stop offset="0.53" stop-color="#1d2027" stop-opacity="0.94"/><stop offset="1" stop-color="#1c1f26"/></linearGradient><clipPath id="clip-path"><path class="cls-1" d="M247.24,63.48l-.34,27.59a3.41,3.41,0,0,0-2-2.85,10.42,10.42,0,0,0-9.58-.09l.34-27.6a10.42,10.42,0,0,1,9.58.1A3.39,3.39,0,0,1,247.24,63.48Z"/></clipPath><clipPath id="clip-path-2"><path class="cls-1" d="M247.24,63.48l-.34,27.59a3.4,3.4,0,0,1-2,2.79l.34-27.59A3.4,3.4,0,0,0,247.24,63.48Z"/></clipPath><clipPath id="clip-path-3"><path class="cls-1" d="M225.1,53l-.34,27.59c0,3.33-2.22,6.63-6.54,9.13-8.7,5-22.74,4.88-31.37-.31-4.34-2.61-6.49-6-6.45-9.36l.34-27.6c0,3.36,2.11,6.75,6.45,9.36,8.63,5.19,22.68,5.33,31.37.31C222.88,59.62,225.06,56.32,225.1,53Z"/></clipPath><clipPath id="clip-path-4"><path class="cls-1" d="M215.18,99.78a3.44,3.44,0,0,0-2,2.79l.35-27.6a3.4,3.4,0,0,1,2-2.78C215.42,80.47,215.28,91.51,215.18,99.78Z"/></clipPath><clipPath id="clip-path-5"><path class="cls-1" d="M213.18,102.57l.35-27.6a3.42,3.42,0,0,0,2,2.86,10.4,10.4,0,0,0,9.57.09l-.34,27.6a10.4,10.4,0,0,1-9.57-.09A3.45,3.45,0,0,1,213.18,102.57Z"/></clipPath><clipPath id="clip-path-6"><path class="cls-1" d="M140.09,76.85l-.34,27.59a3.6,3.6,0,0,0-2.05-3,10.91,10.91,0,0,0-10-.1l.34-27.6a10.9,10.9,0,0,1,10,.11A3.58,3.58,0,0,1,140.09,76.85Z"/></clipPath><clipPath id="clip-path-7"><path class="cls-1" d="M140.09,76.85l-.34,27.59a3.59,3.59,0,0,1-2.08,2.91l.34-27.6A3.58,3.58,0,0,0,140.09,76.85Z"/></clipPath><clipPath id="clip-path-8"><path class="cls-1" d="M170.12,81.88l-.35,27.6a2.13,2.13,0,0,0-1.22-1.78,6.5,6.5,0,0,0-6-.06l.34-27.6a6.5,6.5,0,0,1,6,.06A2.16,2.16,0,0,1,170.12,81.88Z"/></clipPath><clipPath id="clip-path-9"><path class="cls-1" d="M170.12,81.88l-.35,27.6a2.13,2.13,0,0,1-1.24,1.74l.34-27.6A2.14,2.14,0,0,0,170.12,81.88Z"/></clipPath><clipPath id="clip-path-10"><path class="cls-1" d="M181.46,88.71l-.34,27.59a2.15,2.15,0,0,0-1.22-1.78,6.52,6.52,0,0,0-6-.06l.35-27.59a6.47,6.47,0,0,1,6,.06A2.12,2.12,0,0,1,181.46,88.71Z"/></clipPath><clipPath id="clip-path-11"><path class="cls-1" d="M181.46,88.71l-.34,27.59a2.13,2.13,0,0,1-1.24,1.74l.34-27.6A2.1,2.1,0,0,0,181.46,88.71Z"/></clipPath><clipPath id="clip-path-12"><path class="cls-1" d="M85,126A3.58,3.58,0,0,0,82.88,129l.34-27.6a3.56,3.56,0,0,1,2.08-2.9C85.2,106.73,85.06,117.76,85,126Z"/></clipPath><clipPath id="clip-path-13"><path class="cls-1" d="M82.88,129l.34-27.59a3.6,3.6,0,0,0,2,3,10.88,10.88,0,0,0,10,.09L94.92,132a10.91,10.91,0,0,1-10-.09A3.61,3.61,0,0,1,82.88,129Z"/></clipPath><clipPath id="clip-path-14"><path class="cls-1" d="M105.49,140.6a2.13,2.13,0,0,0-1.24,1.75l.34-27.6a2.13,2.13,0,0,1,1.24-1.74C105.73,121.29,105.59,132.33,105.49,140.6Z"/></clipPath><clipPath id="clip-path-15"><path class="cls-1" d="M104.25,142.35l.34-27.6a2.14,2.14,0,0,0,1.22,1.78,6.52,6.52,0,0,0,6,0l-.34,27.6a6.54,6.54,0,0,1-6-.05A2.14,2.14,0,0,1,104.25,142.35Z"/></clipPath><clipPath id="clip-path-16"><path class="cls-1" d="M116.84,147.43a2.11,2.11,0,0,0-1.24,1.74l.34-27.6a2.13,2.13,0,0,1,1.24-1.74C117.08,128.11,116.94,139.15,116.84,147.43Z"/></clipPath><clipPath id="clip-path-17"><path class="cls-1" d="M115.6,149.17l.34-27.6a2.12,2.12,0,0,0,1.21,1.78,6.51,6.51,0,0,0,6,.06L122.79,151a6.51,6.51,0,0,1-6-.05A2.12,2.12,0,0,1,115.6,149.17Z"/></clipPath><clipPath id="clip-path-18"><path class="cls-1" d="M128.18,154.25a2.11,2.11,0,0,0-1.24,1.74l.34-27.6a2.14,2.14,0,0,1,1.24-1.74C128.42,134.93,128.28,146,128.18,154.25Z"/></clipPath><clipPath id="clip-path-19"><path class="cls-1" d="M160.91,113.93l-.34,27.6a2.14,2.14,0,0,0-1.21-1.78,6.54,6.54,0,0,0-6-.05l.34-27.6a6.51,6.51,0,0,1,6,.06A2.11,2.11,0,0,1,160.91,113.93Z"/></clipPath><clipPath id="clip-path-20"><path class="cls-1" d="M126.94,156l.34-27.6a2.12,2.12,0,0,0,1.21,1.78,6.51,6.51,0,0,0,6,.06l-.34,27.59a6.54,6.54,0,0,1-6,0A2.14,2.14,0,0,1,126.94,156Z"/></clipPath><clipPath id="clip-path-21"><path class="cls-1" d="M68.28,111.78l-.34,27.59a8.47,8.47,0,0,0-7.76-.08l.34-27.59A8.41,8.41,0,0,1,68.28,111.78Z"/></clipPath><clipPath id="clip-path-22"><path class="cls-1" d="M160.91,113.93l-.34,27.6a2.11,2.11,0,0,1-1.24,1.74l.34-27.59A2.13,2.13,0,0,0,160.91,113.93Z"/></clipPath><clipPath id="clip-path-23"><path class="cls-1" d="M73.89,116.51l-.34,27.6A2.81,2.81,0,0,0,72,141.78l.34-27.59A2.78,2.78,0,0,1,73.89,116.51Z"/></clipPath><clipPath id="clip-path-24"><path class="cls-1" d="M50.76,146.06l.34-27.6a2.78,2.78,0,0,1,1.62-2.26l-.34,27.6A2.77,2.77,0,0,0,50.76,146.06Z"/></clipPath><clipPath id="clip-path-25"><path class="cls-1" d="M73.89,116.51l-.34,27.6a2.76,2.76,0,0,1-1.61,2.25l.34-27.59A2.78,2.78,0,0,0,73.89,116.51Z"/></clipPath><clipPath id="clip-path-26"><path class="cls-1" d="M50.76,146.06l.34-27.6a2.78,2.78,0,0,0,1.59,2.32l-.34,27.6A2.81,2.81,0,0,1,50.76,146.06Z"/></clipPath><clipPath id="clip-path-27"><path class="cls-1" d="M85.72,122.26l-.34,27.6a8.46,8.46,0,0,0-7.77-.09L78,122.18A8.46,8.46,0,0,1,85.72,122.26Z"/></clipPath><clipPath id="clip-path-28"><path class="cls-1" d="M64.48,123.27l-.34,27.6a8.48,8.48,0,0,1-7.78-.08l.34-27.6A8.48,8.48,0,0,0,64.48,123.27Z"/></clipPath><clipPath id="clip-path-29"><path class="cls-1" d="M91.32,127,91,154.59a2.78,2.78,0,0,0-1.59-2.32l.34-27.6A2.81,2.81,0,0,1,91.32,127Z"/></clipPath><clipPath id="clip-path-30"><path class="cls-1" d="M68.19,156.54l.34-27.6a2.78,2.78,0,0,1,1.62-2.26l-.34,27.6A2.76,2.76,0,0,0,68.19,156.54Z"/></clipPath><clipPath id="clip-path-31"><path class="cls-1" d="M91.32,127,91,154.59a2.76,2.76,0,0,1-1.61,2.25l.34-27.59A2.79,2.79,0,0,0,91.32,127Z"/></clipPath><clipPath id="clip-path-32"><path class="cls-1" d="M68.19,156.54l.34-27.6a2.78,2.78,0,0,0,1.59,2.32l-.34,27.6A2.8,2.8,0,0,1,68.19,156.54Z"/></clipPath><clipPath id="clip-path-33"><path class="cls-1" d="M103.15,132.74l-.34,27.6a8.49,8.49,0,0,0-7.77-.09l.34-27.59A8.46,8.46,0,0,1,103.15,132.74Z"/></clipPath><clipPath id="clip-path-34"><path class="cls-1" d="M81.91,133.75l-.34,27.6a8.48,8.48,0,0,1-7.78-.08l.35-27.59A8.46,8.46,0,0,0,81.91,133.75Z"/></clipPath><clipPath id="clip-path-35"><path class="cls-1" d="M108.75,137.47l-.34,27.6a2.78,2.78,0,0,0-1.59-2.32l.34-27.6A2.81,2.81,0,0,1,108.75,137.47Z"/></clipPath><clipPath id="clip-path-36"><path class="cls-1" d="M85.62,167l.34-27.6a2.78,2.78,0,0,1,1.62-2.26l-.34,27.6A2.76,2.76,0,0,0,85.62,167Z"/></clipPath><clipPath id="clip-path-37"><path class="cls-1" d="M108.75,137.47l-.34,27.6a2.76,2.76,0,0,1-1.61,2.25l.34-27.59A2.79,2.79,0,0,0,108.75,137.47Z"/></clipPath><clipPath id="clip-path-38"><path class="cls-1" d="M85.62,167l.34-27.6a2.81,2.81,0,0,0,1.59,2.33l-.34,27.59A2.78,2.78,0,0,1,85.62,167Z"/></clipPath><clipPath id="clip-path-39"><path class="cls-1" d="M99.34,144.23,99,171.83a8.48,8.48,0,0,1-7.78-.08l.35-27.59A8.46,8.46,0,0,0,99.34,144.23Z"/></clipPath><clipPath id="clip-path-40"><path class="cls-1" d="M103.05,177.51l.34-27.6a2.82,2.82,0,0,1,1.63-2.27l-.34,27.6A2.78,2.78,0,0,0,103.05,177.51Z"/></clipPath><clipPath id="clip-path-41"><path class="cls-1" d="M103.05,177.51l.34-27.6a2.81,2.81,0,0,0,1.59,2.32l-.34,27.59A2.78,2.78,0,0,1,103.05,177.51Z"/></clipPath><clipPath id="clip-path-42"><path class="cls-1" d="M120.58,143.22l-.34,27.6a8.46,8.46,0,0,0-7.77-.08l.35-27.6A8.44,8.44,0,0,1,120.58,143.22Z"/></clipPath><clipPath id="clip-path-43"><path class="cls-1" d="M116.78,154.72l-.35,27.59a8.48,8.48,0,0,1-7.78-.08l.34-27.59A8.5,8.5,0,0,0,116.78,154.72Z"/></clipPath><clipPath id="clip-path-44"><path class="cls-1" d="M126.19,148l-.35,27.59a2.8,2.8,0,0,0-1.59-2.32l.34-27.6A2.82,2.82,0,0,1,126.19,148Z"/></clipPath><clipPath id="clip-path-45"><path class="cls-1" d="M126.19,148l-.35,27.59a2.74,2.74,0,0,1-1.61,2.26l.34-27.6A2.76,2.76,0,0,0,126.19,148Z"/></clipPath></defs><title>Fichier 1</title><g id="Calque_2" data-name="Calque 2"><g id="Calque_1-2" data-name="Calque 1"><path class="cls-2" d="M317.29,100a2.73,2.73,0,0,0,.13-.8l.34-27.6a2.73,2.73,0,0,1-.13.8s0,.07,0,.1a4.06,4.06,0,0,1-.34.74l-.1.15-.2.27-.15.19a3.31,3.31,0,0,1-.26.27l-.18.18c-.11.1-.23.19-.35.28l-.18.14a7.15,7.15,0,0,1-.61.4L149.56,170.76l.22-17.61-23.06,13.31a10.43,10.43,0,0,1-1.43.67l-.39.15a14.08,14.08,0,0,1-1.48.44l-.11,0a15.67,15.67,0,0,1-1.69.28l-.43,0c-.52.05-1,.07-1.55.07h-.21a16.57,16.57,0,0,1-1.73-.12l-.42-.05a14.9,14.9,0,0,1-1.51-.28l-.19,0a15,15,0,0,1-1.56-.5l-.35-.14a11.2,11.2,0,0,1-1.43-.71L33.8,119.15l-.22,18L2.82,118.12c-1.67-1-2.49-2.31-2.48-3.6L0,142.12c0,1.29.81,2.6,2.48,3.6l35.19,21.81.22-18.12,33,19.81-17.24,10a9.73,9.73,0,0,1-1.38.65l-.37.14a13.46,13.46,0,0,1-1.41.42l-.12,0c-.52.12-1.06.2-1.61.27l-.42,0c-.49,0-1,.07-1.48.07h-.21c-.55,0-1.1,0-1.65-.11l-.4-.05c-.5-.07-1-.16-1.45-.27l-.18,0a13.83,13.83,0,0,1-1.5-.48l-.33-.14a9.67,9.67,0,0,1-1.37-.67L12.61,162.75c-1.92-1.15-2.87-2.65-2.85-4.14l-.34,27.6c0,1.49.93,3,2.85,4.14l27.12,16.31a10.89,10.89,0,0,0,1.37.67l.33.14a13.83,13.83,0,0,0,1.5.48l.18,0c.3.07.6.14.91.19l.53.07.41.06c.55.06,1.1.1,1.65.11h.21a14.52,14.52,0,0,0,1.48-.07l.42,0A13.86,13.86,0,0,0,50,208l.11,0a13,13,0,0,0,1.42-.43l.37-.14a11.63,11.63,0,0,0,1.38-.64l25.88-15L113,212.17a7.75,7.75,0,0,0,1.19.59l.29.12a13.16,13.16,0,0,0,1.3.42l.16,0,.79.17.47.06.35.05c.48,0,1,.09,1.44.1h.18q.64,0,1.29-.06l.37,0c.47-.06.94-.13,1.4-.23l.09,0a11.91,11.91,0,0,0,1.24-.37l.32-.12a10.19,10.19,0,0,0,1.2-.56L314.9,102.7a5.3,5.3,0,0,0,.61-.39l.18-.14.35-.28.17-.18a3.44,3.44,0,0,0,.27-.27l.15-.2a1.89,1.89,0,0,0,.2-.27l.06-.08s0,0,0-.07a3.32,3.32,0,0,0,.35-.74S317.28,100,317.29,100Z"/><g class="cls-3"><g class="cls-4"><path class="cls-5" d="M247.24,63.48l-.34,27.59a3.41,3.41,0,0,0-2-2.85,8.7,8.7,0,0,0-2.95-1l.34-27.59a8.7,8.7,0,0,1,2.95,1.05,3.39,3.39,0,0,1,2,2.85"/><path class="cls-6" d="M242.34,59.58,242,87.17a10.34,10.34,0,0,0-6.63,1l.34-27.6a10.34,10.34,0,0,1,6.63-1"/></g></g><g class="cls-3"><g class="cls-7"><path class="cls-8" d="M247.24,63.48l-.34,27.59a2.47,2.47,0,0,1-.42,1.36l.35-27.59a2.59,2.59,0,0,0,.41-1.36"/><path class="cls-9" d="M246.83,64.84l-.35,27.59a4.32,4.32,0,0,1-1.57,1.43l.34-27.59a4.54,4.54,0,0,0,1.58-1.43"/></g></g><g class="cls-3"><g class="cls-10"><path class="cls-11" d="M225.1,53l-.34,27.59A8.5,8.5,0,0,1,223.4,85l.34-27.6A8.4,8.4,0,0,0,225.1,53"/><path class="cls-12" d="M223.74,57.41,223.4,85a14.7,14.7,0,0,1-5.18,4.7c-5.89,3.4-14.23,4.43-21.68,3.13l.34-27.59c7.45,1.29,15.79.26,21.68-3.14a14.7,14.7,0,0,0,5.18-4.7"/><path class="cls-11" d="M196.88,65.25l-.34,27.59a28.55,28.55,0,0,1-9.69-3.44c-4.34-2.61-6.49-6-6.45-9.36l.34-27.6c0,3.36,2.11,6.75,6.45,9.36a28.35,28.35,0,0,0,9.69,3.45"/></g></g><polygon class="cls-13" points="235.71 60.53 235.37 88.13 215.18 99.78 215.52 72.19 235.71 60.53"/><g class="cls-3"><g class="cls-14"><path class="cls-6" d="M215.52,72.19l-.34,27.59a4.47,4.47,0,0,0-1.58,1.44l.34-27.6a4.36,4.36,0,0,1,1.58-1.43"/><path class="cls-5" d="M213.94,73.62l-.34,27.6a2.64,2.64,0,0,0-.42,1.35l.35-27.6a2.53,2.53,0,0,1,.41-1.35"/></g></g><polygon class="cls-15" points="137.54 50.74 137.2 78.33 56.56 124.89 56.9 97.3 137.54 50.74"/><polygon class="cls-16" points="245.25 66.27 244.91 93.86 224.72 105.52 225.06 77.92 245.25 66.27"/><g class="cls-3"><g class="cls-17"><path class="cls-9" d="M225.06,77.92l-.34,27.6a10.28,10.28,0,0,1-6.63,1l.34-27.59a10.34,10.34,0,0,0,6.63-1"/><path class="cls-8" d="M218.43,78.88l-.34,27.59a8.35,8.35,0,0,1-2.94-1,3.45,3.45,0,0,1-2-2.86l.35-27.6a3.42,3.42,0,0,0,2,2.86,8.57,8.57,0,0,0,2.94,1"/></g></g><g class="cls-3"><g class="cls-18"><path class="cls-19" d="M140.09,76.85l-.34,27.59a3.6,3.6,0,0,0-2.05-3,9.09,9.09,0,0,0-3.08-1.09l.34-27.6a9.23,9.23,0,0,1,3.09,1.1,3.58,3.58,0,0,1,2,3"/><path class="cls-13" d="M135,72.77l-.34,27.6a10.78,10.78,0,0,0-6.91,1l.34-27.6a10.84,10.84,0,0,1,6.91-1"/></g></g><path class="cls-20" d="M235.71,60.53a10.42,10.42,0,0,1,9.58.1c2.62,1.57,2.6,4.11,0,5.64L225.06,77.92a10.4,10.4,0,0,1-9.57-.09c-2.63-1.58-2.62-4.11,0-5.64Z"/><g class="cls-3"><g class="cls-21"><path class="cls-11" d="M140.09,76.85l-.34,27.59a2.84,2.84,0,0,1-.44,1.42l.34-27.6a2.78,2.78,0,0,0,.44-1.41"/><path class="cls-12" d="M139.65,78.26l-.34,27.6a4.62,4.62,0,0,1-1.64,1.49l.34-27.6a4.53,4.53,0,0,0,1.64-1.49"/></g></g><g class="cls-3"><g class="cls-22"><path class="cls-19" d="M170.12,81.88l-.35,27.6a2.13,2.13,0,0,0-1.22-1.78,5.29,5.29,0,0,0-1.84-.65l.35-27.6a5.52,5.52,0,0,1,1.83.65,2.16,2.16,0,0,1,1.23,1.78"/><path class="cls-13" d="M167.06,79.45l-.35,27.6a6.41,6.41,0,0,0-4.12.59l.34-27.6a6.44,6.44,0,0,1,4.13-.59"/></g></g><g class="cls-3"><g class="cls-23"><path class="cls-11" d="M170.12,81.88l-.35,27.6a1.62,1.62,0,0,1-.26.85l.34-27.6a1.61,1.61,0,0,0,.27-.85"/><path class="cls-12" d="M169.85,82.73l-.34,27.6a2.77,2.77,0,0,1-1,.89l.34-27.6a2.68,2.68,0,0,0,1-.89"/></g></g><g class="cls-3"><g class="cls-24"><path class="cls-19" d="M181.46,88.71l-.34,27.59a2.15,2.15,0,0,0-1.22-1.78,5.58,5.58,0,0,0-1.84-.65l.34-27.59a5.09,5.09,0,0,1,1.84.65,2.12,2.12,0,0,1,1.22,1.78"/><path class="cls-13" d="M178.4,86.28l-.34,27.59a6.45,6.45,0,0,0-4.13.59l.35-27.59a6.35,6.35,0,0,1,4.12-.59"/></g></g><g class="cls-3"><g class="cls-25"><path class="cls-11" d="M181.46,88.71l-.34,27.59a1.59,1.59,0,0,1-.26.85l.34-27.6a1.56,1.56,0,0,0,.26-.84"/><path class="cls-12" d="M181.2,89.55l-.34,27.6a2.68,2.68,0,0,1-1,.89l.34-27.6a2.6,2.6,0,0,0,1-.89"/></g></g><polygon class="cls-26" points="128.05 73.76 127.71 101.36 84.96 126.04 85.3 98.45 128.05 73.76"/><g class="cls-3"><g class="cls-27"><path class="cls-13" d="M85.3,98.45,85,126a4.64,4.64,0,0,0-1.64,1.5l.34-27.6a4.53,4.53,0,0,1,1.64-1.49"/><path class="cls-19" d="M83.66,99.94l-.34,27.6a2.68,2.68,0,0,0-.44,1.41l.34-27.59a2.69,2.69,0,0,1,.44-1.42"/></g></g><polygon class="cls-28" points="138.01 79.75 137.67 107.35 94.92 132.03 95.26 104.43 138.01 79.75"/><path class="cls-29" d="M191.37,19.66a15.73,15.73,0,0,1,14.5.14L284.31,67c4,2.4,4,6.22-.06,8.54l-53.83,31.08L137.54,50.74Zm27.19,42.45c8.69-5,8.73-13.29.1-18.48S196,38.3,187.29,43.31s-8.74,13.3-.1,18.49,22.68,5.33,31.37.31m26.69,4.16c2.64-1.53,2.66-4.07,0-5.64a10.42,10.42,0,0,0-9.58-.1L215.52,72.19c-2.65,1.53-2.66,4.06,0,5.64a10.4,10.4,0,0,0,9.57.09l20.19-11.65"/><g class="cls-3"><g class="cls-30"><path class="cls-12" d="M95.26,104.43,94.92,132A10.74,10.74,0,0,1,88,133l.34-27.59a10.81,10.81,0,0,0,6.92-1"/><path class="cls-11" d="M88.34,105.43,88,133a9,9,0,0,1-3.07-1.08,3.61,3.61,0,0,1-2.05-3l.34-27.59a3.6,3.6,0,0,0,2,3,9,9,0,0,0,3.07,1.09"/></g></g><polygon class="cls-26" points="162.93 80.04 162.59 107.64 105.49 140.6 105.83 113.01 162.93 80.04"/><g class="cls-3"><g class="cls-31"><path class="cls-13" d="M105.83,113l-.34,27.59a2.78,2.78,0,0,0-1,.9l.34-27.6a2.77,2.77,0,0,1,1-.89"/><path class="cls-19" d="M104.85,113.9l-.34,27.6a1.59,1.59,0,0,0-.26.85l.34-27.6a1.59,1.59,0,0,1,.26-.85"/></g></g><polygon class="cls-28" points="168.88 83.62 168.53 111.22 111.44 144.18 111.78 116.58 168.88 83.62"/><g class="cls-3"><g class="cls-32"><path class="cls-12" d="M111.78,116.58l-.34,27.6a6.48,6.48,0,0,1-4.14.6l.34-27.6a6.42,6.42,0,0,0,4.14-.6"/><path class="cls-11" d="M107.64,117.18l-.34,27.6a5.58,5.58,0,0,1-1.84-.65,2.14,2.14,0,0,1-1.21-1.78l.34-27.6a2.14,2.14,0,0,0,1.22,1.78,5.52,5.52,0,0,0,1.83.65"/></g></g><polygon class="cls-26" points="174.28 86.87 173.94 114.47 116.84 147.43 117.18 119.83 174.28 86.87"/><g class="cls-3"><g class="cls-33"><path class="cls-13" d="M117.18,119.83l-.34,27.6a2.68,2.68,0,0,0-1,.89l.34-27.59a2.7,2.7,0,0,1,1-.9"/><path class="cls-19" d="M116.2,120.73l-.34,27.59a1.59,1.59,0,0,0-.26.85l.34-27.6a1.59,1.59,0,0,1,.26-.84"/></g></g><polygon class="cls-28" points="180.22 90.44 179.88 118.04 122.79 151 123.13 123.41 180.22 90.44"/><g class="cls-3"><g class="cls-34"><path class="cls-12" d="M123.13,123.41,122.79,151a6.42,6.42,0,0,1-4.14.6L119,124a6.48,6.48,0,0,0,4.14-.59"/><path class="cls-11" d="M119,124l-.34,27.6a5.58,5.58,0,0,1-1.84-.65,2.12,2.12,0,0,1-1.21-1.78l.34-27.6a2.12,2.12,0,0,0,1.21,1.78A5.36,5.36,0,0,0,119,124"/></g></g><polygon class="cls-26" points="153.72 112.1 153.38 139.7 128.18 154.25 128.52 126.65 153.72 112.1"/><g class="cls-3"><g class="cls-35"><path class="cls-13" d="M128.52,126.65l-.34,27.6a2.68,2.68,0,0,0-1,.89l.34-27.6a2.86,2.86,0,0,1,1-.89"/><path class="cls-19" d="M127.54,127.54l-.34,27.6a1.59,1.59,0,0,0-.26.85l.34-27.6a1.62,1.62,0,0,1,.26-.85"/></g></g><g class="cls-3"><g class="cls-36"><path class="cls-19" d="M160.91,113.93l-.34,27.6a2.14,2.14,0,0,0-1.21-1.78,5.58,5.58,0,0,0-1.84-.65l.34-27.59a5.16,5.16,0,0,1,1.84.65,2.11,2.11,0,0,1,1.21,1.77"/><path class="cls-13" d="M157.86,111.51l-.34,27.59a6.48,6.48,0,0,0-4.14.6l.34-27.6a6.48,6.48,0,0,1,4.14-.59"/></g></g><polygon class="cls-28" points="159.67 115.68 159.33 143.27 134.13 157.82 134.47 130.23 159.67 115.68"/><g class="cls-3"><g class="cls-37"><path class="cls-12" d="M134.47,130.23l-.34,27.59a6.42,6.42,0,0,1-4.14.6l.34-27.6a6.48,6.48,0,0,0,4.14-.59"/><path class="cls-11" d="M130.33,130.82l-.34,27.6a5.58,5.58,0,0,1-1.84-.65,2.14,2.14,0,0,1-1.21-1.78l.34-27.6a2.12,2.12,0,0,0,1.21,1.78,5.36,5.36,0,0,0,1.84.65"/></g></g><g class="cls-3"><g class="cls-38"><path class="cls-39" d="M68.28,111.78l-.34,27.59a7.14,7.14,0,0,0-2.39-.85l.34-27.59a6.73,6.73,0,0,1,2.39.85"/><path class="cls-40" d="M65.89,110.93l-.34,27.59a8.42,8.42,0,0,0-5.37.77l.34-27.59a8.29,8.29,0,0,1,5.37-.77"/></g></g><polygon class="cls-41" points="72.3 114.19 71.95 141.78 67.94 139.37 68.28 111.78 72.3 114.19"/><g class="cls-3"><g class="cls-42"><path class="cls-11" d="M160.91,113.93l-.34,27.6a1.59,1.59,0,0,1-.26.85l.34-27.6a1.59,1.59,0,0,0,.26-.85"/><path class="cls-12" d="M160.65,114.78l-.34,27.6a2.77,2.77,0,0,1-1,.89l.34-27.59a2.7,2.7,0,0,0,1-.9"/></g></g><polygon class="cls-12" points="60.52 111.7 60.18 139.29 52.38 143.8 52.72 116.2 60.52 111.7"/><g class="cls-3"><g class="cls-43"><path class="cls-39" d="M73.89,116.51l-.34,27.6A2.81,2.81,0,0,0,72,141.78l.34-27.59a2.78,2.78,0,0,1,1.59,2.32"/></g></g><g class="cls-3"><g class="cls-44"><path class="cls-40" d="M52.72,116.2l-.34,27.6A3.48,3.48,0,0,0,51.1,145l.34-27.6a3.66,3.66,0,0,1,1.28-1.16"/><path class="cls-39" d="M51.44,117.36,51.1,145a2.08,2.08,0,0,0-.34,1.1l.34-27.6a2.11,2.11,0,0,1,.34-1.1"/></g></g><g class="cls-3"><g class="cls-45"><path class="cls-8" d="M73.89,116.51l-.34,27.6a2.18,2.18,0,0,1-.34,1.1l.34-27.6a2.15,2.15,0,0,0,.34-1.1"/><path class="cls-9" d="M73.55,117.61l-.34,27.6a3.59,3.59,0,0,1-1.27,1.15l.34-27.59a3.61,3.61,0,0,0,1.27-1.16"/></g></g><g class="cls-3"><g class="cls-46"><path class="cls-8" d="M52.69,120.78l-.34,27.6a2.81,2.81,0,0,1-1.59-2.32l.34-27.6a2.78,2.78,0,0,0,1.59,2.32"/></g></g><g class="cls-3"><g class="cls-47"><path class="cls-39" d="M85.72,122.26l-.34,27.6A7.07,7.07,0,0,0,83,149l.34-27.59a6.85,6.85,0,0,1,2.4.85"/><path class="cls-40" d="M83.32,121.41,83,149a8.42,8.42,0,0,0-5.37.77L78,122.18a8.36,8.36,0,0,1,5.37-.77"/></g></g><polygon class="cls-16" points="72.28 118.77 71.94 146.37 64.14 150.87 64.48 123.27 72.28 118.77"/><polygon class="cls-48" points="56.7 123.19 56.36 150.79 52.35 148.38 52.69 120.78 56.7 123.19"/><polygon class="cls-41" points="89.73 124.67 89.39 152.27 85.38 149.86 85.72 122.26 89.73 124.67"/><path class="cls-20" d="M60.52,111.7a8.41,8.41,0,0,1,7.76.08l4,2.41c2.13,1.28,2.12,3.34,0,4.58l-7.8,4.5a8.48,8.48,0,0,1-7.78-.08l-4-2.41c-2.13-1.28-2.12-3.34,0-4.58Z"/><g class="cls-3"><g class="cls-49"><path class="cls-9" d="M64.48,123.27l-.34,27.6a8.4,8.4,0,0,1-5.38.77L59.1,124a8.4,8.4,0,0,0,5.38-.77"/><path class="cls-8" d="M59.1,124l-.34,27.6a6.91,6.91,0,0,1-2.4-.85l.34-27.6a6.85,6.85,0,0,0,2.4.85"/></g></g><polygon class="cls-12" points="77.95 122.18 77.61 149.77 69.81 154.28 70.15 126.68 77.95 122.18"/><g class="cls-3"><g class="cls-50"><path class="cls-39" d="M91.32,127,91,154.59a2.78,2.78,0,0,0-1.59-2.32l.34-27.6A2.81,2.81,0,0,1,91.32,127"/></g></g><g class="cls-3"><g class="cls-51"><path class="cls-40" d="M70.15,126.68l-.34,27.6a3.48,3.48,0,0,0-1.28,1.16l.34-27.6a3.66,3.66,0,0,1,1.28-1.16"/><path class="cls-39" d="M68.87,127.84l-.34,27.6a2.08,2.08,0,0,0-.34,1.1l.34-27.6a2.11,2.11,0,0,1,.34-1.1"/></g></g><g class="cls-3"><g class="cls-52"><path class="cls-11" d="M91.32,127,91,154.59a2.11,2.11,0,0,1-.34,1.1l.34-27.6a2.08,2.08,0,0,0,.34-1.1"/><path class="cls-12" d="M91,128.09l-.34,27.6a3.59,3.59,0,0,1-1.27,1.15l.34-27.59A3.62,3.62,0,0,0,91,128.09"/></g></g><path class="cls-53" d="M56.9,97.3l80.64-46.56,92.88,55.85-.42.24-80.22,46.32Zm28.4,1.15c-2.76,1.59-2.77,4.24,0,5.89a10.88,10.88,0,0,0,10,.09L138,79.75c2.76-1.59,2.77-4.24,0-5.88a10.9,10.9,0,0,0-10-.11L85.3,98.45m94.92-8c1.65-1,1.66-2.53,0-3.51a6.47,6.47,0,0,0-6-.06l-57.1,33c-1.65,1-1.66,2.54,0,3.52a6.51,6.51,0,0,0,6,.06l57.09-33m-11.35-6.82c1.65-1,1.66-2.53,0-3.52a6.5,6.5,0,0,0-6-.06l-57.1,33c-1.64.95-1.66,2.53,0,3.52a6.52,6.52,0,0,0,6,0l57.09-33m-9.2,32.06c1.65-1,1.66-2.54,0-3.52a6.51,6.51,0,0,0-6-.06l-25.2,14.55c-1.65.95-1.66,2.54,0,3.52a6.51,6.51,0,0,0,6,.06l25.2-14.55"/><g class="cls-3"><g class="cls-54"><path class="cls-11" d="M70.12,131.26l-.34,27.6a2.8,2.8,0,0,1-1.59-2.32l.34-27.6a2.78,2.78,0,0,0,1.59,2.32"/></g></g><g class="cls-3"><g class="cls-55"><path class="cls-39" d="M103.15,132.74l-.34,27.6a6.85,6.85,0,0,0-2.4-.85l.34-27.6a7.06,7.06,0,0,1,2.4.85"/><path class="cls-40" d="M100.75,131.89l-.34,27.6a8.36,8.36,0,0,0-5.37.76l.34-27.59a8.36,8.36,0,0,1,5.37-.77"/></g></g><polygon class="cls-28" points="89.71 129.25 89.37 156.84 81.57 161.35 81.91 133.75 89.71 129.25"/><polygon class="cls-56" points="74.14 133.68 73.8 161.27 69.78 158.86 70.12 131.26 74.14 133.68"/><polygon class="cls-41" points="107.16 135.15 106.82 162.75 102.81 160.34 103.15 132.74 107.16 135.15"/><g class="cls-3"><g class="cls-57"><path class="cls-12" d="M81.91,133.75l-.34,27.6a8.41,8.41,0,0,1-5.38.77l.34-27.59a8.4,8.4,0,0,0,5.38-.78"/><path class="cls-11" d="M76.53,134.53l-.34,27.59a6.85,6.85,0,0,1-2.4-.85l.35-27.59a7.14,7.14,0,0,0,2.39.85"/></g></g><polygon class="cls-12" points="95.38 132.66 95.04 160.25 87.24 164.76 87.58 137.16 95.38 132.66"/><g class="cls-3"><g class="cls-58"><path class="cls-39" d="M108.75,137.47l-.34,27.6a2.78,2.78,0,0,0-1.59-2.32l.34-27.6a2.81,2.81,0,0,1,1.59,2.32"/></g></g><g class="cls-3"><g class="cls-59"><path class="cls-40" d="M87.58,137.16l-.34,27.6A3.48,3.48,0,0,0,86,165.92l.34-27.6a3.65,3.65,0,0,1,1.28-1.16"/><path class="cls-39" d="M86.3,138.32,86,165.92a2.06,2.06,0,0,0-.34,1.1l.34-27.6a2.18,2.18,0,0,1,.34-1.1"/></g></g><g class="cls-3"><g class="cls-60"><path class="cls-11" d="M108.75,137.47l-.34,27.6a2.11,2.11,0,0,1-.34,1.1l.34-27.6a2.08,2.08,0,0,0,.34-1.1"/><path class="cls-12" d="M108.41,138.57l-.34,27.6a3.59,3.59,0,0,1-1.27,1.15l.34-27.59a3.71,3.71,0,0,0,1.27-1.16"/></g></g><g class="cls-3"><g class="cls-61"><path class="cls-11" d="M87.55,141.75l-.34,27.59A2.78,2.78,0,0,1,85.62,167l.34-27.6a2.81,2.81,0,0,0,1.59,2.33"/></g></g><polygon class="cls-28" points="107.14 139.73 106.8 167.32 99 171.83 99.34 144.23 107.14 139.73"/><polygon class="cls-56" points="91.56 144.16 91.22 171.75 87.21 169.34 87.55 141.75 91.56 144.16"/><g class="cls-3"><g class="cls-62"><path class="cls-12" d="M99.34,144.23,99,171.83a8.41,8.41,0,0,1-5.38.77L94,145a8.4,8.4,0,0,0,5.38-.78"/><path class="cls-11" d="M94,145l-.34,27.59a6.85,6.85,0,0,1-2.4-.85l.35-27.59A7.14,7.14,0,0,0,94,145"/></g></g><polygon class="cls-12" points="112.81 143.14 112.47 170.74 104.67 175.24 105.02 147.65 112.81 143.14"/><g class="cls-3"><g class="cls-63"><path class="cls-40" d="M105,147.64l-.34,27.6a3.62,3.62,0,0,0-1.29,1.17l.35-27.6a3.5,3.5,0,0,1,1.28-1.17"/><path class="cls-39" d="M103.74,148.81l-.35,27.6a2.15,2.15,0,0,0-.34,1.1l.34-27.6a2.1,2.1,0,0,1,.35-1.1"/></g></g><g class="cls-3"><g class="cls-64"><path class="cls-11" d="M105,152.23l-.34,27.59a2.78,2.78,0,0,1-1.59-2.31l.34-27.6a2.81,2.81,0,0,0,1.59,2.32"/></g></g><polygon class="cls-56" points="109 154.64 108.65 182.23 104.64 179.82 104.98 152.22 109 154.64"/><g class="cls-3"><g class="cls-65"><path class="cls-39" d="M120.58,143.22l-.34,27.6a6.87,6.87,0,0,0-2.39-.85l.34-27.6a7,7,0,0,1,2.39.85"/><path class="cls-40" d="M118.19,142.37l-.34,27.6a8.4,8.4,0,0,0-5.38.77l.35-27.6a8.36,8.36,0,0,1,5.37-.77"/></g></g><g class="cls-3"><g class="cls-66"><path class="cls-12" d="M116.78,154.72l-.35,27.59a8.32,8.32,0,0,1-5.38.77l.34-27.59a8.43,8.43,0,0,0,5.39-.77"/><path class="cls-11" d="M111.39,155.49l-.34,27.59a6.85,6.85,0,0,1-2.4-.85l.34-27.59a7.28,7.28,0,0,0,2.4.85"/></g></g><polygon class="cls-41" points="124.59 145.63 124.25 173.23 120.24 170.82 120.58 143.22 124.59 145.63"/><g class="cls-3"><g class="cls-67"><path class="cls-39" d="M126.19,148l-.35,27.59a2.8,2.8,0,0,0-1.59-2.32l.34-27.6a2.82,2.82,0,0,1,1.6,2.33"/></g></g><g class="cls-3"><g class="cls-68"><path class="cls-11" d="M126.19,148l-.35,27.59a2,2,0,0,1-.34,1.1l.35-27.59a2.21,2.21,0,0,0,.34-1.1"/><path class="cls-12" d="M125.85,149.06l-.35,27.59a3.53,3.53,0,0,1-1.27,1.16l.34-27.6a3.63,3.63,0,0,0,1.28-1.15"/></g></g><polygon class="cls-28" points="124.57 150.21 124.23 177.81 116.43 182.31 116.78 154.72 124.57 150.21"/><path class="cls-69" d="M33.84,110.61,56.9,97.3l92.88,55.85-23.06,13.31a15.72,15.72,0,0,1-14.48-.15L33.8,119.15C29.81,116.75,29.83,112.92,33.84,110.61Zm73.32,24.54-4-2.41a8.46,8.46,0,0,0-7.77-.08l-7.8,4.5c-2.15,1.24-2.16,3.3,0,4.59l4,2.41a8.46,8.46,0,0,0,7.77.07l7.8-4.5c2.14-1.24,2.15-3.3,0-4.58M89.73,124.67l-4-2.41a8.46,8.46,0,0,0-7.77-.08l-7.8,4.5c-2.15,1.24-2.16,3.3,0,4.58l4,2.42a8.46,8.46,0,0,0,7.77.07l7.8-4.5c2.14-1.24,2.15-3.3,0-4.58M72.3,114.19l-4-2.41a8.41,8.41,0,0,0-7.76-.08l-7.8,4.5c-2.15,1.24-2.16,3.3,0,4.58l4,2.41a8.48,8.48,0,0,0,7.78.08l7.8-4.5c2.14-1.24,2.15-3.3,0-4.58m52.29,31.44-4-2.41a8.44,8.44,0,0,0-7.76-.08l-7.8,4.5c-2.15,1.25-2.17,3.31,0,4.59l4,2.41a8.5,8.5,0,0,0,7.79.08l7.79-4.51c2.15-1.23,2.15-3.3,0-4.58"/><path class="cls-70" d="M192.68,1.41a13.12,13.12,0,0,1,12.08.13L315.28,68c3.32,2,3.3,5.19,0,7.12L125.42,184.7a13.12,13.12,0,0,1-12.08-.12L79.49,164.22l-25.88,15a15.06,15.06,0,0,1-13.88-.14L12.61,162.75c-3.82-2.29-3.8-6,.05-8.18L38,139.94,2.82,118.12c-3.32-2-3.3-5.18,0-7.12ZM284.31,67,205.87,19.8a15.73,15.73,0,0,0-14.5-.14L137.54,50.74,56.9,97.3,33.84,110.61c-4,2.31-4,6.14,0,8.54l78.44,47.16a15.72,15.72,0,0,0,14.48.15l22.93-13.23L230,106.83l54.25-31.32c4-2.32,4-6.14.06-8.54"/><path class="cls-71" d="M128.05,73.76a10.9,10.9,0,0,1,10,.11c2.73,1.64,2.72,4.29,0,5.88L95.26,104.43a10.88,10.88,0,0,1-10-.09c-2.74-1.65-2.73-4.3,0-5.89Z"/><path class="cls-71" d="M162.93,80a6.5,6.5,0,0,1,6,.06c1.64,1,1.63,2.57,0,3.52l-57.09,33a6.52,6.52,0,0,1-6,0c-1.64-1-1.62-2.57,0-3.52Z"/><path class="cls-71" d="M174.28,86.87a6.47,6.47,0,0,1,6,.06c1.64,1,1.63,2.56,0,3.51l-57.09,33a6.51,6.51,0,0,1-6-.06c-1.63-1-1.62-2.57,0-3.52Z"/><path class="cls-71" d="M78,122.18a8.46,8.46,0,0,1,7.77.08l4,2.41c2.13,1.28,2.12,3.34,0,4.58l-7.8,4.5a8.46,8.46,0,0,1-7.77-.07l-4-2.42c-2.13-1.28-2.12-3.34,0-4.58Z"/><path class="cls-71" d="M95.38,132.66a8.46,8.46,0,0,1,7.77.08l4,2.41c2.13,1.28,2.12,3.34,0,4.58l-7.8,4.5a8.46,8.46,0,0,1-7.77-.07l-4-2.41c-2.13-1.29-2.12-3.35,0-4.59Z"/><path class="cls-71" d="M112.82,143.14a8.44,8.44,0,0,1,7.76.08l4,2.41c2.13,1.28,2.13,3.35,0,4.58l-7.79,4.51a8.5,8.5,0,0,1-7.79-.08l-4-2.41c-2.13-1.28-2.11-3.34,0-4.59Z"/><path class="cls-71" d="M153.72,112.1a6.51,6.51,0,0,1,6,.06c1.63,1,1.62,2.57,0,3.52l-25.2,14.55a6.51,6.51,0,0,1-6-.06c-1.63-1-1.62-2.57,0-3.52Z"/><path class="cls-71" d="M187.29,43.31c8.69-5,22.74-4.87,31.37.32s8.59,13.47-.1,18.48S195.82,67,187.19,61.8,178.6,48.33,187.29,43.31Z"/><path class="cls-72" d="M65.71,129.23c.3,3.26-1.65,6.55-5.88,9-7.87,4.55-20.59,4.42-28.4-.28-3.86-2.31-5.79-5.31-5.83-8.29h-.09v28.83h.11c.18,2.88,2.1,5.73,5.81,8,7.81,4.7,20.53,4.83,28.4.28,3.91-2.25,5.88-5.23,5.92-8.24h0V129.23Z"/><path class="cls-73" d="M31.52,121.2c7.87-4.54,20.59-4.41,28.41.29s7.77,12.19-.1,16.73-20.59,4.42-28.4-.28S23.65,125.74,31.52,121.2Z"/><g class="cls-74"><path class="cls-75" d="M45.39,117.88v1a27.58,27.58,0,0,1,14,3.47c3.48,2.08,5.37,4.78,5.35,7.58s-2,5.42-5.43,7.43A27.18,27.18,0,0,1,46,140.55a27.64,27.64,0,0,1-14-3.46c-3.48-2.09-5.38-4.79-5.35-7.59s1.95-5.43,5.43-7.43a27.14,27.14,0,0,1,13.37-3.19v-1m0,0a28.29,28.29,0,0,0-13.87,3.32c-7.87,4.54-7.91,12-.09,16.74A28.78,28.78,0,0,0,46,141.55a28.22,28.22,0,0,0,13.88-3.33c7.87-4.54,7.91-12,.1-16.73a28.78,28.78,0,0,0-14.54-3.61Z"/></g></g></g></svg>