<svg width="123" height="96" viewBox="0 0 123 96" fill="none" xmlns="http://www.w3.org/2000/svg">
  <path d="M15 4C-13.4035 4.00001 12.9372 4 21.2081 4C22.5698 4 23.7442 4.91715 24.092 6.2337L29.1987 25.5625M29.1987 25.5625L41.1416 70.7663C41.4895 72.0829 42.6804 73 44.0421 73H90.8589C92.2369 73 93.4377 72.0612 93.7702 70.7239L104.074 29.2865C104.545 27.3939 103.113 25.5625 101.163 25.5625H29.1987Z" stroke="white" stroke-width="8"/>
  <circle cx="49.5" cy="89.5" r="6.5" fill="white"/>
  <circle cx="89.5" cy="89.5" r="6.5" fill="white"/>
  <circle cx="98.5" cy="28.5" r="24.5" fill="white"/>
  <path class="cross" d="M111 24C113.209 24 115 25.7909 115 28C115 30.2091 113.209 32 111 32L87 32C84.7909 32 83 30.2091 83 28C83 25.7909 84.7909 24 87 24L111 24Z" />
  <path class="cross" d="M111 24C113.209 24 115 25.7909 115 28C115 30.2091 113.209 32 111 32L87 32C84.7909 32 83 30.2091 83 28C83 25.7909 84.7909 24 87 24L111 24Z" />
  <path class="cross" d="M95 16C95 13.7909 96.7909 12 99 12C101.209 12 103 13.7909 103 16V40C103 42.2091 101.209 44 99 44C96.7909 44 95 42.2091 95 40V16Z" />
  <path class="cross" d="M95 16C95 13.7909 96.7909 12 99 12C101.209 12 103 13.7909 103 16V40C103 42.2091 101.209 44 99 44C96.7909 44 95 42.2091 95 40V16Z" />
</svg>
