<svg id="Calque_1" xmlns="http://www.w3.org/2000/svg" viewBox="0 0 100 100"><g id="Groupe_9" transform="translate(-858.353 -419.046)" fill="none" stroke="#FFF" stroke-width="3" stroke-miterlimit="10"><path id="Tracé_76" d="M926.8 499.6c1.6 0 2.1-1.7 2.3-2.2v-22.2c0-4.7.1-8.8.3-12.3 0-.3.2-.5.5-.4h.1l3.6.9c.9.2 1.7-.3 2-1.1l4.6-13.4c.3-.8-.1-1.8-.9-2.1l-19.5-8.5c-.2-.1-.4-.1-.7 0-6.6 2.9-14.1 2.9-20.8 0-.2-.1-.4-.1-.7 0l-19.5 8.5c-.8.4-1.2 1.3-.9 2.1l4.6 13.4c.3.8 1.2 1.3 2 1.1l3.6-.9c.3-.1.5.1.6.3v.1c.2 3.6.3 7.7.3 12.3v22.2c.1.5.7 2.2 2.3 2.2h36.2z"/><path id="Tracé_77" d="M898.1 438.2s2.2 7.1 10.8 7.1"/><path id="Tracé_79" d="M919.3 438.2s-2.2 7.1-10.8 7.1"/></g></svg>