<svg data-name="Calque 1" xmlns="http://www.w3.org/2000/svg" width="100" height="100"><path d="M41.47 36c5.77-3.94 6.94-12.29 6.94-12.29s-8.19-1.94-14 2S27.49 38 27.49 38s8.2 1.93 13.98-2z" fill="none" stroke="#fff" stroke-linecap="round" stroke-linejoin="round" stroke-width="3.62"/><rect x="39.43" y="62.15" width="19.57" height="15.44" rx="3.46" ry="3.46" fill="none" stroke="#fff" stroke-linecap="round" stroke-linejoin="round" stroke-width="3.62"/><circle cx="46.53" cy="67.71" r="1.36" fill="#fff"/><circle cx="51.44" cy="68.99" r="1.36" fill="#fff"/><circle cx="48" cy="71.92" r="1.36" fill="#fff"/><path fill="none" stroke="#fff" stroke-linecap="round" stroke-linejoin="round" stroke-width="3.62" d="M37.09 30.67l11.32-6.98M58.17 34.21c-6.49-2.61-9.43-10.51-9.43-10.51s7.58-3.7 14.08-1.05 9.43 10.51 9.43 10.51-7.59 3.66-14.08 1.05zM61.3 28.07L48.74 23.7M49.44 26.5s6.37 15.69 0 35.75"/></svg>