<svg data-name="Calque 1" xmlns="http://www.w3.org/2000/svg" width="100" height="100"><g fill="none" stroke="#fff" stroke-linecap="round" stroke-linejoin="round" stroke-width="3.62"><path d="M42.75 37.63c0 5.31-4.9 9.86-7.2 11.71a1.88 1.88 0 0 1-2.35 0c-2.3-1.85-7.2-6.4-7.2-11.71s4.9-9.87 7.2-11.72a1.88 1.88 0 0 1 2.35 0c2.3 1.85 7.2 6.4 7.2 11.72zM58.5 63.63c0 5.31-4.9 9.86-7.2 11.71a1.88 1.88 0 0 1-2.35 0c-2.3-1.85-7.2-6.4-7.2-11.71s4.9-9.87 7.2-11.72a1.88 1.88 0 0 1 2.35 0c2.3 1.85 7.2 6.4 7.2 11.72zM74.25 37.63c0 5.31-4.9 9.86-7.2 11.71a1.88 1.88 0 0 1-2.35 0c-2.3-1.85-7.2-6.4-7.2-11.71s4.9-9.87 7.2-11.72a1.88 1.88 0 0 1 2.35 0c2.3 1.85 7.2 6.4 7.2 11.72z"/></g></svg>