<svg id="Calque_1" xmlns="http://www.w3.org/2000/svg" viewBox="0 0 100 100"><g id="Calque_1-2" fill="none" stroke="#FFF" stroke-width="2.951" stroke-linecap="round" stroke-linejoin="round"><path d="M55.7 72.8c-2.6-2.2-4.5-5-5.6-8.2 3.3.5 6.5 1.8 9.1 3.8 2.5 2.2 4.5 5 5.6 8.2-3.3-.5-6.4-1.8-9.1-3.8z"/><path d="M68.2 69c-5.6-.1-11.1-1.7-15.9-4.6 4.8-2.9 10.3-4.5 15.9-4.7 5.6.1 11.1 1.7 15.9 4.7-4.9 2.9-10.3 4.5-15.9 4.6z"/><path d="M68.6 54.2c-7.8 7.8-18.3 10-18.3 10s2.2-10.5 10-18.3 18.2-10 18.2-10-2.1 10.5-9.9 18.3zM44.3 72.8c2.6-2.2 4.5-5 5.6-8.2-3.3.5-6.5 1.8-9.1 3.8-2.6 2.2-4.5 5-5.6 8.2 3.3-.5 6.4-1.8 9.1-3.8z"/><path d="M31.8 69c5.6-.1 11.1-1.7 15.9-4.6-4.8-2.9-10.3-4.5-15.9-4.7-5.6.1-11.1 1.7-15.9 4.7 4.9 2.9 10.3 4.5 15.9 4.6z"/><path d="M31.4 54.2c7.8 7.8 18.2 10 18.2 10s-2.2-10.5-10-18.3-18.2-10-18.2-10 2.2 10.5 10 18.3z"/><path d="M57.1 37.9c0 13.2-7 23.9-7 23.9s-7-10.7-7-23.9 7-23.9 7-23.9 7 10.7 7 23.9zM50 64.5V86"/></g></svg>