<svg data-name="Calque 1" xmlns="http://www.w3.org/2000/svg" width="100" height="100"><rect x="37.61" y="36.6" width="29.31" height="11.05" rx="5.52" ry="5.52" transform="rotate(50.54 52.27 42.133)" fill="none" stroke="#fff" stroke-linecap="round" stroke-linejoin="round" stroke-width="3.62"/><path d="M43.66 43.48l5.62 6.83-17.64 14.53a.7.7 0 0 1-.43.15l-4-.12-2.86 1h-.2a.47.47 0 0 1-.4-.73l1.38-2.63a.49.49 0 0 0 .07-.19l.61-4.14 17.85-14.7m0-3.6a3.6 3.6 0 0 0-2.29.82L23.52 55.39a3.64 3.64 0 0 0-1.27 2.25l-.54 3.64-1.14 2.18a4.07 4.07 0 0 0 4.91 5.78l2.26-.75 3.35.1h.12a4.22 4.22 0 0 0 2.71-1l17.65-14.5a3.59 3.59 0 0 0 .49-5.09l-5.62-6.83a3.6 3.6 0 0 0-2.78-1.31z" fill="#fff"/><path d="M50.06 30.48c2.7.69 6-2.19 6-2.19l10.67-8.84a8.32 8.32 0 0 1 11.68 1.13 8.32 8.32 0 0 1-1.13 11.68L66.57 41.1s-3.46 2.65-3.3 5.43" fill="none" stroke="#fff" stroke-linecap="round" stroke-linejoin="round" stroke-width="3.62"/><path d="M24.11 80.77a3.42 3.42 0 1 1-6.84 0c0-1.31 1.66-3.85 2.67-5.27a.93.93 0 0 1 1.51 0c1 1.42 2.66 3.96 2.66 5.27z" fill="#fff"/></svg>