<svg xmlns="http://www.w3.org/2000/svg" viewBox="0 0 174 41">
  <g fill="#FFF">
    <path d="M7.3 7.2c3.4-3.4 8-5.3 12.8-5.3 4.9 0 9.4 1.9 12.8 5.3 3.4 3.4 5.3 8 5.3 12.8 0 4.8-1.9 9.4-5.3 12.8-3.4 3.4-8 5.3-12.8 5.3-4.8 0-9.4-1.9-12.8-5.3C3.9 29.5 2 24.9 2 20.1c0-4.9 1.9-9.4 5.3-12.9m12.9 32.6c5.3 0 10.2-2.1 14-5.8 3.7-3.7 5.8-8.7 5.8-14 0-5.3-2.1-10.2-5.8-14-3.7-3.7-8.7-5.8-14-5.8C14.9.2 10 2.3 6.2 6 2.5 9.7.4 14.7.4 20c0 5.3 2.1 10.2 5.8 14 3.7 3.8 8.7 5.8 14 5.8"/>
    <path d="M18.4 17.9c0-1 .8-1.8 1.7-1.8.9 0 1.7.8 1.7 1.8 0 .7-.8 2-1.7 3-.9-1.1-1.7-2.3-1.7-3M7.8 16.8l7.7 12c.2.2.4.4.7.4.2 0 .3 0 .4-.1.2-.1.3-.3.3-.4l3.1-5.1 3.4 5.3c.1.1.1.2.3.3.1.1.3.1.4.1.3 0 .5-.1.7-.4l7.7-12v-.1H34c.5 0 .8-.4.8-.8 0-.5-.4-.8-.8-.8h-5c-.5 0-.8.4-.8.8 0 .5.4.8.8.8h1.8l-6.7 10.3-3-4.7c.3-.4.8-.9 1.2-1.5.8-1.2 1.2-2.2 1.2-3 0-1.8-1.4-3.4-3.2-3.5h-.1-.1c-1.8.1-3.2 1.6-3.2 3.5 0 .8.4 1.8 1.2 3 .4.6.8 1.1 1.1 1.4L16.3 27 9.7 16.7h1.8c.5 0 .8-.4.8-.8 0-.5-.4-.8-.8-.8h-5c-.5 0-.8.4-.8.8 0 .5.4.8.8.8l1.3.1M51 15.7c-.1-.1-.1-.3-.1-.5 0-.6.6-1.1 1.2-1.1s1 .4 1.2.9l3.1 9.1 3-9.1c.2-.6.6-.9 1.2-.9h.2c.6 0 1 .4 1.2.9l3 9.1 3.1-9.1c.2-.5.6-.8 1.1-.8.6 0 1.2.5 1.2 1.1 0 .2-.1.3-.1.5l-3.9 11c-.2.6-.6 1-1.2 1H65c-.6 0-1-.4-1.2-1l-3-8.7-3 8.7c-.2.6-.6 1-1.2 1h-.2c-.6 0-1-.4-1.2-1L51 15.7zM76.6 15.2c0-.6.5-1.2 1.2-1.2.6 0 1.2.5 1.2 1.2v11.2c0 .6-.5 1.2-1.2 1.2s-1.2-.5-1.2-1.2V15.2zM86.3 15.2c0-.6.5-1.2 1.2-1.2.6 0 1.2.5 1.2 1.2v5.6l6.3-6.3c.3-.3.5-.4 1-.4.6 0 1.1.5 1.1 1.1 0 .4-.2.6-.4.9l-4.1 4 4.5 5.6c.2.2.3.5.3.8 0 .6-.5 1.1-1.2 1.1-.5 0-.7-.2-1-.5l-4.3-5.4-2.2 2.1v2.8c0 .6-.5 1.2-1.2 1.2s-1.2-.5-1.2-1.2V15.2zM103.8 15.2c0-.6.5-1.2 1.2-1.2.6 0 1.2.5 1.2 1.2v11.2c0 .6-.5 1.2-1.2 1.2s-1.2-.5-1.2-1.2V15.2zM113.4 15.2c0-.6.5-1.2 1.2-1.2.6 0 1.2.5 1.2 1.2v10.1h6c.6 0 1.1.5 1.1 1.1s-.5 1.1-1.1 1.1h-7.2c-.7 0-1.2-.5-1.2-1.2V15.2zM129 26.3V15.4c0-.7.5-1.2 1.2-1.2h7.7c.6 0 1 .5 1 1 0 .6-.5 1-1 1h-6.6v3.5h5.7c.6 0 1 .5 1 1.1 0 .6-.5 1-1 1h-5.7v3.6h6.7c.6 0 1 .5 1 1 0 .6-.5 1-1 1h-7.8c-.7.1-1.2-.4-1.2-1.1M153.4 22.2l-2.3-5.4-2.3 5.4h4.6zm-8.6 3.8l4.9-11c.3-.6.7-.9 1.4-.9h.1c.7 0 1.1.4 1.4.9l4.9 11c.1.2.1.3.1.5 0 .6-.5 1.1-1.1 1.1-.6 0-.9-.3-1.1-.8l-1.1-2.5h-6.5l-1.1 2.6c-.2.5-.6.7-1.1.7-.6 0-1.1-.5-1.1-1.1.1-.2.2-.4.3-.5zM164 15.4c0-.7.5-1.2 1.2-1.2h7.7c.6 0 1.1.5 1.1 1.1 0 .6-.5 1.1-1.1 1.1h-6.6V20h5.7c.6 0 1.1.5 1.1 1.1s-.5 1.1-1.1 1.1h-5.7v4.3c0 .6-.5 1.2-1.2 1.2s-1.2-.5-1.2-1.2V15.4z"/>
  </g>
</svg>
