<svg xmlns="http://www.w3.org/2000/svg" viewBox="0 0 1350 280" preserveAspectRatio="xMinYMin meet">
  <path fill="#FFF" d="M25.792 148.39l4.14-1.608c4.667-1.75 5.667-2.334 11.36-3.54 1.045-.27 2.14-.47 3.31-.567 3.214-4.427 8.38-7.496 15.538-7.496.93 0 1.818.065 2.686.163V113.67l-37.034 34.72zM303.702 148.574c4.61 0 8.375 1.293 11.348 3.39 2.174.048 4.176.37 5.973.95-6.885-5.732-34.79-35.36-34.79-37.275v28.49c1.07-.15 2.183-.257 3.358-.257 5.554 0 9.89 1.855 13.064 4.75.35-.014.69-.05 1.048-.05z"/>
  <path fill="#FFF" stroke="#FFF" stroke-width="10" d="M291.48 140.928c0 65.105-52.773 117.865-117.87 117.865-65.102 0-117.875-52.76-117.875-117.865 0-65.102 52.773-117.87 117.874-117.87 65.097 0 117.87 52.768 117.87 117.87z"/>
  <path fill="#4C721D" d="M248.73 105.43l-23.86 11.953 9.54-17.506-40.18 26.256-1.603-.79 1.968-2.175-.003-.01 13.025-14.36.43-.483-33.71-26.748-22.677 11.93 8.36-17.107-29.708 20.047 52.383 54.078-66.43-53.527.787 17.213-19.895-11.17c-33.227 28.003-47.893 36.003-72.164 45.534 5.664-1.197 13.854-.78 30.34-6.727.22 19.936 5.3 38.662 14.195 55.068-.01 0-.01.004-.018.008l.083.246.06-.026h-.01c1.217 2.246 2.514 4.46 3.87 6.592 3.253-3.277 7.774-7.793 9.075-8.727 2.083-1.51 3.91-5.08 2.396-6.786-1.5-1.7-3.48-1.71-7.876-.04l.37-1.788-2.556 1.607.66-2.193-3.196 1.246.67-1.436-4.547-1.377 4.105-1.26.024-.537 2.675.504-.296-1.36 3.345 1.15-.096-.884 3.185 1.094.11-.846 2.624 1.236s1.15-.54.393-2.223c-.76-1.68-1.274-2.783-2.505-1.855-1.232.938-1.626-.063-2.915-.94-1.312-.88-1.556-1.59-1.556-1.59l1.502-.278-3.44-2.676 1.11-.684-2.755-1.79.98-.782-2.353-2.662 1.184-1.088-2.48-4.62 1.355-.835s-2.755-7.807-2.538-12.635c0 0 5.254 1.207 7.03 5.586l.704-2.4 2.287 4.646.906-1.254 1.596 4.94.88-1.558.648 6.982 1.672-2.227-.388 5.39 1.74-2.198s-.383 5.03 1.18 7.237c1.563 2.21 4.56 1.83 2.964-.293-1.597-2.13-2.54-3.594-2.54-3.594l2.052.092s-1.206-4.54-.86-8.1l2.057.805s.113-4.975 1.725-8.984l1.216 1.563s1.402-4.248 2.3-6.21l1.012 1.132s1.753-3.438 2.937-5.305l.942 2.52s2.575-4.376 4.074-5.694l-.39 2.757s4.052-1.94 6.483-3.898c2.445-1.962 4.154-3.927 4.154-3.927s-.63 5.88-4.644 11.982l2.344-1.123-4.73 5.426 2.69-.25-4.48 5.514 1.765.365-5.12 5.156 2.58-.287-4.702 4.512.952 1.004-3.672 3.418 1.636.637s-4.717 3.563-4.85 6.313c-.12 2.738 1.148 2.563 1.7.766.542-1.785 1.055-2.172 1.055-2.172l.88.434s1.927-4.418 3.885-6.328l1.41 1.152s3.373-4.955 5.238-6.543l-.203 2.9s3.745-4.64 7.212-5.976l-.5 1.805s4.77-3.192 7.43-3.13l-1.106 2.393s5.65-3.49 8.522-4.164l-.273 1.58s3.786-1.177 6.07-1.562l-.71 1.537s4.99-.316 8.497.094c3.516.413 6.91-.163 6.91-.163s-3.714 2.37-8.378 2.857c-4.67.502-8.74 3.246-8.74 3.246l2.066.707-6.73 2.14 2.947.392s-2.236 2.01-6.12 2.415c-3.88.39-5.013.854-5.013.854l4.5.513s-6.004 1.885-7.153 1.787c-2.39-.19 1.155 1.344 1.155 1.344l-3.79 1.166 1.89.71s-5.797 2.323-8.25 3.202c-2.467.883-3.595 1.117-3.077 1.727.513.61 1.442.18 4.565-.653 3.125-.852 9.45-1.445 9.45-1.445l.062 1.445s4.514-2.27 7.988-2.246l-.005.855s3.838-1.393 6.077-1.178l-.572 1.227s4.837-.492 6.468-.068l-1.435 1.49s3.5-.904 5.88-.133l-1.512 1.547s3.44-.277 5.648 1.828c0 0-3.427 1.758-6.236 1.777-2.806.004-4.43 1.055-4.43 1.055l1.212.957-7.26-1.012.687 1.684-4.94-1.63.206 1.973-5.28-1.242-.167 1.466-5.88-1.336-.736 2.24-3.33-1.947-.8 1.244-1.85-1.568s-2.392 1.444-.35 3.007c2.052 1.578 3.655.852 5.514 1.432 1.87.57 4.115 1.815 4.115 1.815l-.69.83 3.622 1.578-1.328.613 5.175 2.145-1.055 1.247s4.54 2.074 5.87 7.602c0 0-3.526-2.282-5.206-2.618l.098 1.563-3.973-2.69-.057 1.714-5.046-2.985.11 1.832-4.005-2.627-.012 2.31-4.344-3.976-.576 2.2-3.833-6.57-.87 2.097-3.466-4.952-.803 1.96-1.61-4.01-1.343.493s-.184-3.33-1.197-3.45c-1.013-.162-1.514 1.107-1.145 1.348.373.223.435.73.435.73l-1.055.982 1.704 1.455-.525 1.563 1.524.855-.365 1.738 1.158 1.876-1.354-.29-.037 5.376-2.56-4.174-1.308 2.705-.807-6.66-1.01 1.508-.126-5.253-2.11 1.965 1.4-4.664s-5.017 2.49-10.62 8.344c-1.714 1.803-3.1 3.438-4.258 4.89 9.525 14.276 22.058 26.366 36.706 35.35 2.988-6.083 9.668-15.825 24.414-26.415 24-17.148 72.512-21.592 108.52-34.38 35.063-12.446-29.152-35.23-56.506-44.185 103.918 10.363 107.996 55.854 50.402 72.266-28.89 8.223-51.657 8.78-52.725 22.924-1.334 17.28 19.913 21.484 34.18 17.79 41.347-17.628 70.62-58.103 71.978-105.587 15.336 7.965 25.473 9.16 30.117 9.18-15.09-6.397-46.15-21.54-73.494-47.735z"/>
  <path fill="#717074" d="M106.476 71.828l20.586 21.248 41.313-46.12L216.32 99.18l26.054-28.76s.07.084.203.22c.09.1.244.27.407.44.088.102.195.22.303.332.083.086.183.195.27.293.858.928 2.152 2.318 3.822 4.11.045.06.097.108.145.163 1.04 1.11 2.22 2.367 3.522 3.758.1.11.198.22.3.326.73.78 1.5 1.592 2.3 2.44.174.196.348.372.528.567.427.448.86.903 1.304 1.366.538.572 1.093 1.158 1.66 1.758.365.387.736.777 1.112 1.172.547.582 1.1 1.168 1.676 1.758.217.24.44.475.666.71.88.92 1.775 1.854 2.688 2.815.098.097.207.204.3.308 7.925 8.27 17.317 17.904 26.84 27.305-9.624-55.76-58.19-98.182-116.67-98.182-58.214 0-106.578 42.015-116.568 97.353.13-.723 2.617-2.334 3.228-2.87 6.153-5.518 39.394-36.495 46.064-44.735z"/>
  <g>
    <path fill="#4C721D" d="M349.742 90.82h19.06c10.93 0 18.303.478 22.12 1.43 5.465 1.346 9.93 4.11 13.4 8.295 3.47 4.186 5.206 9.444 5.206 15.776 0 6.376-1.69 11.635-5.075 15.776-3.383 4.143-8.045 6.93-13.986 8.36-4.337 1.04-12.448 1.56-24.33 1.56h-6.832v44.5h-9.563V90.82zm9.563 9.368v32.462l16.2.195c6.547 0 11.34-.595 14.376-1.785 3.037-1.19 5.422-3.117 7.157-5.78 1.734-2.66 2.602-5.636 2.602-8.927 0-3.202-.87-6.134-2.603-8.796-1.735-2.662-4.023-4.556-6.863-5.68-2.84-1.126-7.493-1.69-13.954-1.69h-16.915zM459.328 113.915c10.905 0 19.94 3.947 27.11 11.84 6.517 7.2 9.775 15.722 9.775 25.566 0 9.89-3.444 18.532-10.33 25.926-6.886 7.396-15.738 11.092-26.556 11.092-10.862 0-19.736-3.696-26.622-11.092-6.887-7.394-10.33-16.036-10.33-25.925 0-9.8 3.258-18.3 9.775-25.5 7.17-7.937 16.23-11.905 27.178-11.905zm-.033 8.912c-7.573 0-14.08 2.797-19.52 8.392-5.44 5.594-8.16 12.36-8.16 20.295 0 5.12 1.24 9.89 3.72 14.313 2.48 4.424 5.832 7.84 10.054 10.246 4.22 2.407 8.855 3.61 13.904 3.61 5.048 0 9.683-1.203 13.905-3.61 4.22-2.406 7.572-5.822 10.053-10.246 2.48-4.424 3.72-9.193 3.72-14.313 0-7.936-2.73-14.702-8.193-20.296-5.46-5.595-11.956-8.393-19.485-8.393zM519.667 89.454h9.107v26.282h14.442v7.872h-14.442v62.908h-9.107v-62.908H507.24v-7.872h12.427V89.454zM649.355 106.89l-7.417 7.025c-5.334-5.247-11.18-9.227-17.532-11.938-6.354-2.71-12.545-4.066-18.573-4.066-7.504 0-14.65 1.845-21.436 5.53-6.788 3.688-12.046 8.686-15.776 14.996-3.73 6.31-5.594 12.978-5.594 20.004 0 7.2 1.93 14.042 5.79 20.524 3.86 6.484 9.194 11.58 16.003 15.288 6.807 3.708 14.267 5.563 22.377 5.563 9.845 0 18.172-2.775 24.98-8.327 6.81-5.55 10.843-12.75 12.1-21.6H613.77v-9.237h41.245c-.087 14.79-4.48 26.533-13.174 35.228-8.695 8.696-20.33 13.044-34.9 13.044-17.695 0-31.704-6.028-42.025-18.085-7.937-9.28-11.905-20.016-11.905-32.203 0-9.064 2.277-17.5 6.83-25.306 4.555-7.807 10.8-13.91 18.736-18.313 7.937-4.4 16.915-6.603 26.933-6.603 8.11 0 15.743 1.464 22.898 4.39 7.155 2.93 14.137 7.625 20.947 14.087zM669.23 115.736h9.107v33.047c0 8.067.434 13.62 1.303 16.654 1.304 4.338 3.79 7.764 7.46 10.28 3.67 2.515 8.046 3.77 13.128 3.77s9.393-1.224 12.934-3.674c3.54-2.45 5.982-5.67 7.33-9.66.91-2.732 1.367-8.523 1.367-17.37v-33.048h9.302v34.738c0 9.76-1.14 17.11-3.415 22.055-2.276 4.943-5.703 8.814-10.278 11.612-4.577 2.797-10.313 4.195-17.208 4.195-6.896 0-12.653-1.398-17.27-4.195-4.62-2.798-8.068-6.7-10.345-11.71-2.277-5.01-3.416-12.545-3.416-22.607v-34.087zM753.217 86.592c2.073 0 3.844.738 5.312 2.21 1.467 1.476 2.2 3.254 2.2 5.335 0 2.04-.733 3.796-2.2 5.27-1.47 1.475-3.24 2.212-5.313 2.212-2.03 0-3.78-.738-5.246-2.213-1.468-1.474-2.2-3.23-2.2-5.27 0-2.082.732-3.86 2.2-5.334 1.468-1.473 3.218-2.21 5.247-2.21zm-4.522 29.144h9.108v70.78h-9.108v-70.78zM846.05 88.413v98.103h-8.976V174.35c-3.817 4.642-8.1 8.133-12.85 10.475s-9.942 3.513-15.58 3.513c-10.018 0-18.572-3.632-25.664-10.896-7.09-7.264-10.637-16.1-10.637-26.51 0-10.19 3.578-18.91 10.734-26.152 7.156-7.243 15.765-10.864 25.827-10.864 5.812 0 11.07 1.236 15.775 3.708s8.836 6.18 12.393 11.125V88.412h8.978zm-36.397 34.284c-5.068 0-9.747 1.247-14.036 3.737-4.29 2.49-7.7 5.99-10.234 10.495s-3.8 9.27-3.8 14.294c0 4.982 1.276 9.748 3.833 14.296 2.555 4.55 5.988 8.09 10.3 10.624 4.308 2.535 8.933 3.802 13.872 3.802 4.982 0 9.703-1.257 14.166-3.77 4.46-2.513 7.895-5.912 10.3-10.2s3.605-9.12 3.605-14.49c0-8.19-2.697-15.033-8.09-20.536-5.394-5.5-12.033-8.253-19.917-8.253zM924.932 163.03l7.677 4.034c-2.52 4.943-5.427 8.935-8.727 11.97-3.3 3.036-7.01 5.346-11.135 6.93-4.125 1.58-8.79 2.373-14 2.373-11.547 0-20.575-3.783-27.087-11.352-6.51-7.567-9.766-16.122-9.766-25.665 0-8.977 2.756-16.98 8.27-24.004 6.987-8.934 16.342-13.4 28.062-13.4 12.068 0 21.705 4.575 28.91 13.726 5.122 6.463 7.727 14.53 7.813 24.2h-63.69c.174 8.222 2.802 14.962 7.882 20.218 5.08 5.258 11.355 7.887 18.824 7.887 3.604 0 7.11-.626 10.52-1.88 3.407-1.252 6.305-2.916 8.693-4.99 2.388-2.075 4.972-5.423 7.752-10.046zm0-19.06c-1.215-4.856-2.984-8.74-5.31-11.645-2.323-2.905-5.395-5.247-9.216-7.026-3.822-1.78-7.838-2.668-12.05-2.668-6.948 0-12.92 2.234-17.91 6.7-3.65 3.254-6.407 8.133-8.273 14.638h52.76z"/>
    <path fill="#727074" d="M960.615 172.203c2.213 0 4.1.78 5.66 2.342 1.562 1.562 2.342 3.47 2.342 5.726 0 2.213-.78 4.11-2.342 5.693-1.56 1.582-3.447 2.374-5.66 2.374-2.21 0-4.098-.792-5.66-2.374-1.56-1.583-2.342-3.48-2.342-5.692 0-2.254.78-4.163 2.343-5.725 1.562-1.56 3.448-2.342 5.66-2.342zM1054.85 130.438l-7.222 4.49c-6.237-8.284-14.75-12.426-25.536-12.426-8.62 0-15.78 2.773-21.476 8.318s-8.545 12.28-8.545 20.208c0 5.155 1.312 10.01 3.932 14.556 2.62 4.55 6.217 8.08 10.787 10.592s9.69 3.77 15.366 3.77c10.396 0 18.887-4.142 25.472-12.426l7.222 4.75c-3.383 5.094-7.927 9.046-13.63 11.854-5.703 2.81-12.197 4.213-19.483 4.213-11.19 0-20.47-3.556-27.844-10.67-7.373-7.11-11.06-15.763-11.06-25.956 0-6.85 1.725-13.215 5.173-19.092 3.447-5.876 8.186-10.462 14.215-13.76 6.028-3.294 12.772-4.943 20.232-4.943 4.684 0 9.205.716 13.563 2.147 4.36 1.43 8.056 3.296 11.092 5.595 3.036 2.3 5.617 5.226 7.743 8.78zM1104.52 113.915c10.904 0 19.94 3.947 27.11 11.84 6.517 7.2 9.775 15.722 9.775 25.566 0 9.89-3.444 18.532-10.33 25.926-6.886 7.396-15.738 11.092-26.556 11.092-10.863 0-19.737-3.696-26.622-11.092-6.887-7.394-10.33-16.036-10.33-25.925 0-9.8 3.258-18.3 9.775-25.5 7.17-7.937 16.227-11.905 27.177-11.905zm-.034 8.912c-7.572 0-14.08 2.797-19.52 8.392-5.44 5.594-8.16 12.36-8.16 20.295 0 5.12 1.24 9.89 3.72 14.313s5.833 7.84 10.056 10.246c4.22 2.407 8.855 3.61 13.904 3.61s9.684-1.203 13.906-3.61c4.22-2.406 7.572-5.822 10.054-10.246 2.48-4.424 3.722-9.193 3.722-14.313 0-7.936-2.73-14.702-8.194-20.296-5.462-5.595-11.958-8.393-19.488-8.393zM1156.857 115.736h9.107v12.23c3.17-4.51 6.425-7.807 9.77-9.888 4.602-2.775 9.443-4.164 14.523-4.164 3.43 0 6.686.673 9.77 2.017 3.082 1.346 5.602 3.135 7.555 5.368 1.954 2.234 3.647 5.432 5.08 9.596 3.03-5.55 6.814-9.77 11.357-12.653 4.543-2.883 9.433-4.325 14.667-4.325 4.89 0 9.205 1.236 12.948 3.708s6.52 5.92 8.34 10.344 2.726 11.06 2.726 19.907v38.643h-9.302v-38.643c0-7.59-.54-12.805-1.62-15.646-1.082-2.84-2.93-5.128-5.546-6.863-2.615-1.734-5.737-2.602-9.368-2.602-4.41 0-8.44 1.3-12.093 3.903-3.653 2.602-6.322 6.072-8.007 10.41-1.686 4.336-2.528 11.58-2.528 21.728v27.713h-9.108V150.28c0-8.544-.53-14.345-1.594-17.402s-2.917-5.507-5.562-7.35c-2.645-1.844-5.79-2.766-9.432-2.766-4.207 0-8.144 1.27-11.81 3.806-3.663 2.537-6.374 5.952-8.13 10.246-1.757 4.293-2.635 10.864-2.635 19.71v29.99h-9.107v-70.778zM1285.957 95.938c2.598 0 5.133.667 7.607 2s4.402 3.24 5.783 5.722 2.072 5.07 2.072 7.762c0 2.666-.682 5.23-2.042 7.69s-3.268 4.372-5.722 5.732-5.02 2.04-7.7 2.04-5.247-.68-7.7-2.04-4.366-3.27-5.733-5.732-2.05-5.024-2.05-7.69c0-2.693.693-5.28 2.08-7.762s3.32-4.39 5.794-5.722 5.012-2 7.61-2zm0 2.564c-2.174 0-4.29.557-6.348 1.67s-3.67 2.708-4.83 4.78-1.743 4.227-1.743 6.47c0 2.228.57 4.364 1.712 6.408s2.736 3.637 4.787 4.778 4.19 1.712 6.42 1.712 4.367-.57 6.418-1.712 3.645-2.734 4.78-4.778 1.7-4.18 1.7-6.41c0-2.24-.577-4.398-1.732-6.47s-2.766-3.663-4.83-4.777-4.176-1.67-6.336-1.67zm-6.79 21.472v-16.652h5.724c1.956 0 3.37.154 4.245.46s1.572.845 2.092 1.61.78 1.58.78 2.44c0 1.218-.435 2.277-1.303 3.18s-2.02 1.408-3.456 1.518c.588.246 1.06.54 1.416.882.67.656 1.49 1.757 2.46 3.302l2.03 3.26h-3.28l-1.478-2.624c-1.162-2.064-2.098-3.356-2.81-3.876-.49-.383-1.21-.574-2.153-.574h-1.578v7.075h-2.687zm2.688-9.372h3.26c1.56 0 2.622-.232 3.19-.697s.85-1.08.85-1.846c0-.493-.136-.934-.41-1.324s-.652-.68-1.138-.872-1.385-.287-2.697-.287h-3.055v5.025z"/>
  </g>
</svg>
